<svg width="181" height="87" viewBox="0 0 181 87" fill="none" xmlns="http://www.w3.org/2000/svg">
<path d="M8.43537 71.0414C9.35944 70.7239 10.217 70.6206 10.9858 70.7018C11.7324 70.783 12.3978 71.0488 12.9448 71.4549C13.4771 71.861 13.9059 72.4074 14.2016 73.0867C14.4899 73.7586 14.6451 74.5634 14.6377 75.4716C14.6303 76.3798 14.4677 77.3175 14.1646 78.2479C13.8615 79.1782 13.4253 80.1085 12.8783 80.9872C12.3239 81.8732 11.6511 82.715 10.8971 83.4533C10.1283 84.1991 9.26333 84.8488 8.33187 85.3361C7.38562 85.8308 6.45416 86.1188 5.59662 86.1926C4.7243 86.2665 3.91852 86.1336 3.23101 85.7939C2.52872 85.4469 1.95949 84.9005 1.56029 84.1621C1.16109 83.4238 0.946711 82.4934 0.954103 81.4154C0.961496 80.3374 1.19806 79.2151 1.60465 78.1223C2.01124 77.0369 2.59525 75.9885 3.30494 75.036C3.99984 74.0983 4.81302 73.2565 5.69273 72.5698C6.56505 71.8906 7.48912 71.3663 8.43537 71.0414Z" fill="#008BBF"/>
<path d="M31.4484 63.1189C31.9141 62.9564 32.3429 62.949 32.7347 63.0598C33.1191 63.1705 33.4592 63.4068 33.7401 63.7391C34.0136 64.0714 34.2428 64.507 34.3906 65.0165C34.5385 65.5259 34.6198 66.1092 34.6198 66.7738C34.6198 67.4309 34.5311 68.0954 34.3684 68.7378C34.2058 69.3876 33.984 70.0152 33.6957 70.5837C33.4074 71.167 33.06 71.6987 32.6755 72.1491C32.2837 72.5995 31.8402 72.976 31.3819 73.2197C30.9087 73.4633 30.4504 73.5593 30.029 73.5224C29.6003 73.4781 29.2084 73.3009 28.8832 72.9908C28.5431 72.6807 28.2696 72.2377 28.0848 71.6913C27.8926 71.1375 27.7965 70.4804 27.7965 69.7346C27.8039 68.9889 27.9074 68.2357 28.107 67.5195C28.3066 66.8033 28.5801 66.124 28.9201 65.5185C29.2602 64.9131 29.652 64.3962 30.0808 63.9754C30.5095 63.5914 30.9679 63.2813 31.4484 63.1189Z" fill="#008BBF"/>
<path d="M44.0453 58.7844C44.3262 58.6884 44.585 58.7106 44.8215 58.8139C45.0507 58.9247 45.2577 59.1314 45.4277 59.4046C45.5978 59.6852 45.7308 60.0396 45.8269 60.4457C45.9156 60.8592 45.9674 61.3244 45.96 61.8412C45.96 62.3581 45.9082 62.8749 45.8047 63.3622C45.7086 63.8569 45.5682 64.3295 45.3982 64.7578C45.2207 65.186 45.0137 65.5773 44.7772 65.8875C44.5406 66.2049 44.2819 66.4486 44.001 66.5963C43.72 66.744 43.4391 66.7809 43.1878 66.707C42.9364 66.6332 42.7073 66.456 42.515 66.1902C42.3154 65.9244 42.1602 65.5626 42.0493 65.1269C41.9384 64.6913 41.8793 64.1818 41.8867 63.6133C41.8867 63.0448 41.9532 62.4836 42.0641 61.952C42.1824 61.4204 42.345 60.9183 42.5446 60.4826C42.7442 60.047 42.9808 59.663 43.2321 59.3677C43.4909 59.0945 43.757 58.8804 44.0453 58.7844Z" fill="#008BBF"/>
<path d="M8.55365 53.5937C9.47772 53.4755 10.3427 53.5715 11.1041 53.8226C11.8507 54.0736 12.5087 54.4797 13.0557 55.0113C13.588 55.5356 14.0168 56.1779 14.3051 56.9237C14.5934 57.662 14.7486 58.4964 14.7412 59.3972C14.7338 60.3054 14.5638 61.2062 14.2681 62.0627C13.965 62.934 13.5362 63.7609 12.9818 64.5215C12.4347 65.282 11.762 65.976 11.008 66.5446C10.2392 67.1279 9.37423 67.5783 8.45016 67.8662C7.50391 68.1542 6.57985 68.228 5.72231 68.1173C4.84999 67.9992 4.0442 67.6817 3.36409 67.1943C2.66919 66.6922 2.09996 66.013 1.70076 65.1934C1.30157 64.359 1.07979 63.3918 1.08718 62.3137C1.09458 61.2357 1.33114 60.1651 1.73773 59.1609C2.14432 58.1715 2.72833 57.2412 3.43062 56.4511C4.12552 55.6611 4.93131 55.0039 5.81102 54.5166C6.69073 54.0219 7.60741 53.7044 8.55365 53.5937Z" fill="#008BBF"/>
<path d="M31.5149 50.773C31.9806 50.7213 32.4094 50.8025 32.8012 51.0019C33.1856 51.2012 33.5257 51.5114 33.8066 51.9101C34.0875 52.3014 34.3019 52.7813 34.4571 53.3277C34.6124 53.8667 34.6863 54.4796 34.6863 55.1367C34.6789 55.7939 34.5976 56.4362 34.435 57.0491C34.2797 57.6693 34.0579 58.2378 33.7696 58.7547C33.4887 59.2716 33.1413 59.7293 32.7495 60.0911C32.3576 60.4603 31.9215 60.7335 31.4631 60.8738C30.99 61.0141 30.5317 61.0141 30.1103 60.8812C29.6815 60.7409 29.2897 60.4677 28.9645 60.0911C28.6318 59.7072 28.3583 59.2051 28.1661 58.6144C27.9739 58.0163 27.8704 57.337 27.8778 56.5987C27.8778 55.8529 27.996 55.1293 28.1882 54.45C28.3804 53.7781 28.6614 53.1579 29.0014 52.6337C29.3415 52.1094 29.7333 51.6738 30.1694 51.3563C30.5908 51.0314 31.0492 50.8321 31.5149 50.773Z" fill="#008BBF"/>
<path d="M44.097 49.23C44.3779 49.2005 44.6367 49.2743 44.8732 49.4367C45.1024 49.5992 45.3094 49.8502 45.4794 50.1677C45.6494 50.4852 45.7825 50.8692 45.8786 51.2974C45.9673 51.7257 46.0191 52.2056 46.0191 52.7225C46.0191 53.2393 45.9599 53.7414 45.8638 54.2066C45.7677 54.6791 45.6273 55.1222 45.4572 55.5135C45.2798 55.8975 45.0728 56.2445 44.8436 56.5029C44.5997 56.7687 44.341 56.9607 44.06 57.0419C43.7717 57.1305 43.5056 57.101 43.2616 56.9755C43.0103 56.8426 42.7737 56.6211 42.5815 56.3109C42.3819 56.0008 42.2267 55.6021 42.1158 55.1443C42.0049 54.6791 41.9458 54.1549 41.9458 53.5864C41.9458 53.0252 42.0123 52.4714 42.1306 51.962C42.2415 51.4599 42.4115 50.9873 42.6037 50.596C42.8033 50.1973 43.0399 49.8724 43.2912 49.6361C43.5426 49.4072 43.8161 49.2669 44.097 49.23Z" fill="#008BBF"/>
<path d="M44.1561 39.6828C44.4297 39.7123 44.6958 39.8452 44.925 40.0594C45.1541 40.2735 45.3611 40.5688 45.5312 40.9306C45.7012 41.2851 45.8416 41.6912 45.9304 42.1489C46.0265 42.5993 46.0782 43.0941 46.0708 43.6035C46.0708 44.1204 46.0117 44.6077 45.9156 45.0581C45.8195 45.5159 45.679 45.922 45.509 46.2764C45.3316 46.6234 45.1246 46.9188 44.888 47.1329C44.6514 47.347 44.3853 47.4726 44.1118 47.5021C43.8235 47.5242 43.5573 47.4356 43.3134 47.2584C43.062 47.0738 42.8329 46.8006 42.6333 46.4462C42.4337 46.0918 42.2784 45.6562 42.1749 45.1762C42.064 44.6889 41.9975 44.1499 42.0049 43.5888C42.0123 43.0202 42.0788 42.4812 42.1971 42.0013C42.308 41.5213 42.478 41.0931 42.6702 40.7387C42.8698 40.3916 43.099 40.1184 43.3577 39.9339C43.6017 39.7419 43.8678 39.6533 44.1561 39.6828Z" fill="#008BBF"/>
<path d="M8.67191 36.1609C9.59598 36.2495 10.4535 36.53 11.2149 36.9583C11.9542 37.3718 12.6195 37.9255 13.1592 38.5753C13.6988 39.2177 14.1202 39.956 14.4085 40.7609C14.6968 41.5583 14.8521 42.4296 14.8447 43.3378C14.8373 44.2386 14.6673 45.1098 14.379 45.8999C14.0759 46.7047 13.6397 47.4357 13.1 48.0707C12.5456 48.7204 11.8803 49.2594 11.1262 49.6581C10.3574 50.0716 9.49988 50.3301 8.57581 50.4113C7.62956 50.4851 6.71289 50.3596 5.85535 50.0495C4.98303 49.7394 4.18463 49.2447 3.49713 48.6023C2.80223 47.9451 2.233 47.1477 1.8412 46.2321C1.442 45.3166 1.22762 44.2902 1.22762 43.2122C1.23501 42.1342 1.47157 41.1227 1.87816 40.2071C2.28475 39.3063 2.86137 38.5089 3.57105 37.8665C4.26595 37.2389 5.06435 36.7589 5.95145 36.4562C6.80899 36.1756 7.73306 36.0649 8.67191 36.1609Z" fill="#008BBF"/>
<path d="M44.2079 30.1435C44.4888 30.2321 44.7476 30.4241 44.9767 30.6899C45.2133 30.9557 45.4203 31.3027 45.5829 31.694C45.7529 32.0854 45.886 32.5284 45.9747 33.0009C46.0708 33.4735 46.1152 33.9756 46.1152 34.4851C46.1152 35.0019 46.0634 35.4819 45.9599 35.9101C45.8638 36.3384 45.7234 36.7223 45.5533 37.0324C45.3759 37.3499 45.1689 37.5936 44.9324 37.756C44.6958 37.9185 44.4371 37.9923 44.1562 37.948C43.8752 37.9111 43.6017 37.7634 43.3578 37.5197C43.1064 37.2761 42.8772 36.9512 42.685 36.5525C42.4928 36.1538 42.3302 35.6886 42.2267 35.1791C42.1158 34.6696 42.0567 34.1159 42.0641 33.5547C42.0641 32.9936 42.1306 32.4619 42.2489 32.0115C42.3598 31.5538 42.5298 31.1624 42.722 30.8523C42.9216 30.5496 43.1508 30.3207 43.4021 30.2025C43.6535 30.0696 43.927 30.0475 44.2079 30.1435Z" fill="#008BBF"/>
<path d="M122.879 27.7065H116.581V66.8915H122.879V27.7065Z" fill="white"/>
<path d="M92.459 27.7065H86.168V66.8915H92.459V27.7065Z" fill="white"/>
<path d="M180.423 61.8781C180.423 72.1561 179.115 76.0473 176.505 78.9639C174.139 81.5555 170.458 83.0987 165.963 83.0987C162.614 83.0987 159.347 82.2865 157.299 81.1568L158.77 76.2984C160.33 77.1106 162.94 78.004 166.126 78.004C171.116 78.004 174.221 74.9324 174.221 66.013V62.0479H174.058C172.75 65.1269 169.807 66.8251 166.459 66.8251C159.428 66.8251 154.852 58.9763 154.852 47.4726C154.852 33.0597 161.476 27.1528 167.36 27.1528C171.53 27.1528 173.489 29.9069 174.716 32.0925H174.879L175.211 27.7214H180.77C180.689 30.3942 180.438 33.8719 180.438 39.9487V61.8781H180.423ZM174.213 41.2334C174.213 40.2588 174.132 39.2103 173.888 38.3981C173.23 35.7252 171.766 32.4838 168.166 32.4838C163.59 32.4838 161.136 38.5606 161.136 47.2216C161.136 57.1821 164.322 61.7157 168.166 61.7157C170.125 61.7157 172.58 60.8296 173.807 56.1263C174.132 54.908 174.213 53.697 174.213 52.56V41.2334Z" fill="white"/>
<path d="M127.537 37.8297C127.537 33.2149 127.293 30.8669 127.211 27.7067H132.682L133.007 32.4839H133.17C134.885 29.3311 138.071 27.1382 142.241 27.1382C147.718 27.1382 151.799 31.1032 151.799 40.5764V66.8917H145.508V41.7135C145.508 37.0175 144.606 32.4027 140.03 32.4027C137.413 32.4027 134.878 34.5883 134.146 38.7157C133.902 39.6904 133.813 40.9013 133.813 42.2746V66.8917H127.522V37.8297H127.537Z" fill="white"/>
<path d="M97.0498 37.8297C97.0498 34.5144 96.8059 30.6233 96.7245 27.7067H102.365L102.698 33.9385H102.86C104.169 30.2172 107.518 27.1382 111.199 27.1382C111.687 27.1382 112.101 27.1382 112.508 27.2194V33.5324H111.199C107.192 33.5324 104.25 37.1726 103.6 41.6323C103.437 42.6881 103.356 43.899 103.356 45.1912V66.8917H97.0646V37.8297H97.0498Z" fill="white"/>
<path d="M33.947 28.2607C33.6661 27.7364 33.326 27.2786 32.949 26.9095C32.5572 26.5329 32.1285 26.2597 31.6701 26.1047C31.197 25.9496 30.7461 25.9496 30.3173 26.0751C29.8885 26.208 29.4967 26.4665 29.1641 26.843C28.824 27.2196 28.5505 27.7143 28.3509 28.305C28.1513 28.8957 28.0404 29.575 28.033 30.3133C28.033 30.5053 28.0404 30.7047 28.0552 30.8966C28.0626 31.0517 28.0774 31.1994 28.1069 31.3544C28.1143 31.3766 28.1143 31.4061 28.1143 31.4283C28.1143 31.443 28.1143 31.4504 28.1217 31.4652C28.1439 31.6572 28.1809 31.8417 28.2178 32.0263C28.2474 32.1519 28.2843 32.2774 28.3139 32.4029C28.3213 32.4177 28.3213 32.4398 28.3287 32.462C28.3361 32.4767 28.3361 32.4841 28.3435 32.4989C28.3509 32.521 28.3583 32.5506 28.3583 32.5727C28.3731 32.617 28.3952 32.654 28.41 32.6983C28.5283 33.0748 28.6762 33.4366 28.8462 33.7763C28.8758 33.828 28.8831 33.8944 28.9201 33.9461C28.9423 33.9904 28.9719 34.0199 29.0014 34.0642C29.0384 34.1381 29.0754 34.2267 29.1197 34.2931C29.2897 34.5663 29.4819 34.8174 29.6815 35.0389C29.6815 35.0463 29.6889 35.0536 29.6889 35.0536C29.7111 35.0758 29.7333 35.0906 29.7481 35.1053C29.9107 35.2825 30.0881 35.4524 30.2655 35.5926C30.3395 35.6443 30.4134 35.6812 30.4947 35.7255C30.5317 35.7551 30.5686 35.7994 30.6056 35.8215C30.6795 35.8585 30.7461 35.888 30.82 35.9175C30.8717 35.9471 30.9235 35.9766 30.9826 35.9987C31.1896 36.08 31.3966 36.1538 31.611 36.1833C32.0693 36.2498 32.5129 36.1686 32.8973 35.9766C33.2817 35.7846 33.6218 35.4819 33.9101 35.0906C34.191 34.6992 34.4201 34.2193 34.5754 33.6803C34.7306 33.1413 34.8193 32.5358 34.8193 31.8787C34.8267 31.2215 34.7454 30.5791 34.5976 29.9663C34.4497 29.3535 34.2279 28.7775 33.947 28.2607Z" fill="#008BBF"/>
<path d="M44.2596 20.6039C44.5406 20.7515 44.7993 21.0026 45.0285 21.3275C45.2576 21.645 45.4646 22.0363 45.6346 22.4572C45.8047 22.8854 45.9377 23.358 46.0338 23.8527C46.1226 24.3474 46.1743 24.8642 46.1743 25.3737C46.1669 25.8832 46.1152 26.3557 46.0191 26.7618C45.923 27.1679 45.7825 27.5223 45.6051 27.7955C45.4351 28.0687 45.2207 28.2681 44.9915 28.3788C44.7549 28.4896 44.4962 28.497 44.2153 28.401C43.9344 28.2976 43.6608 28.0909 43.4095 27.7955C43.1581 27.5002 42.929 27.1236 42.7368 26.6806C42.5446 26.2376 42.3819 25.7355 42.2784 25.2039C42.1675 24.6722 42.1084 24.1037 42.1158 23.5426C42.1158 22.974 42.1823 22.4645 42.3006 22.0363C42.4189 21.608 42.5741 21.2462 42.7811 20.9804C42.9807 20.722 43.2025 20.5448 43.4612 20.4783C43.7052 20.4119 43.9787 20.4488 44.2596 20.6039Z" fill="#008BBF"/>
<path d="M8.79758 18.7502C9.71425 19.0456 10.5718 19.5181 11.3258 20.1088C12.0725 20.6921 12.7304 21.3862 13.2701 22.1615C13.8023 22.922 14.2237 23.7564 14.5194 24.6276C14.8077 25.4915 14.963 26.3923 14.9482 27.3005C14.9482 28.2013 14.7782 29.0357 14.4825 29.7593C14.1794 30.4976 13.7506 31.1326 13.2035 31.6495C12.6491 32.1737 11.9912 32.565 11.2371 32.8013C10.4683 33.0376 9.61076 33.1114 8.68669 32.9859C7.74783 32.853 6.82377 32.5207 5.97362 32.0186C5.1087 31.5166 4.30291 30.8447 3.62279 30.0472C2.92789 29.235 2.36606 28.3121 1.96686 27.3079C1.56767 26.3037 1.35328 25.2257 1.36067 24.1551C1.36807 23.0844 1.59724 22.1098 2.01122 21.2902C2.41781 20.478 3.00182 19.8135 3.70411 19.3336C4.39901 18.8536 5.19741 18.5509 6.07712 18.4549C6.93465 18.3589 7.85133 18.4475 8.79758 18.7502Z" fill="#008BBF"/>
<path d="M123.367 17.5838C123.367 20.0131 121.896 21.6301 119.523 21.6301C117.483 21.6301 115.923 20.0131 115.923 17.5838C115.923 15.1546 117.557 13.5376 119.605 13.5376C121.896 13.5376 123.367 15.162 123.367 17.5838Z" fill="#008BBF"/>
<path d="M92.9543 17.5838C92.9543 20.0131 91.4832 21.6301 89.1102 21.6301C87.0699 21.6301 85.5101 20.0131 85.5101 17.5838C85.5101 15.1546 87.1438 13.5376 89.1915 13.5376C91.4832 13.5376 92.9543 15.162 92.9543 17.5838Z" fill="#008BBF"/>
<path d="M29.2011 21.4157C29.5263 22.0212 29.9181 22.5454 30.3395 22.9663C30.7609 23.3798 31.2118 23.6899 31.6849 23.8597C32.1507 24.0221 32.5868 24.0443 32.9712 23.9335C33.3556 23.8302 33.6957 23.6013 33.984 23.269C34.2649 22.9441 34.4867 22.5159 34.6493 22.0064C34.8046 21.5043 34.8933 20.9136 34.9007 20.2565C34.9007 19.5993 34.8268 18.9348 34.6789 18.2924C34.5237 17.6427 34.3093 17.0151 34.0284 16.4391C33.7474 15.8558 33.4074 15.3168 33.0304 14.8664C32.646 14.4013 32.2172 14.0321 31.7589 13.781C31.2857 13.53 30.8274 13.4192 30.4134 13.4562C29.9847 13.4857 29.5929 13.6629 29.2602 13.9656C28.9201 14.2757 28.6466 14.704 28.447 15.243C28.2474 15.7894 28.1365 16.4465 28.1365 17.1849C28.1291 17.9233 28.2326 18.6764 28.4175 19.4C28.5949 20.1236 28.861 20.8029 29.2011 21.4157Z" fill="#008BBF"/>
<path d="M57.1523 10.8647H63.4433V31.9967H63.606C64.4265 30.6234 65.6537 29.4051 66.9548 28.519C68.3446 27.6256 69.9783 27.1457 72.1887 27.1457C77.1713 27.1457 81.422 31.0295 81.422 40.9088V66.8992H75.1309V41.6398C75.1309 36.8625 74.0664 32.4102 69.8157 32.4102C66.8735 32.4102 64.6705 34.5145 63.6873 38.642C63.5246 39.4542 63.4433 40.5839 63.4433 41.5585V66.8992H57.1523V10.8647Z" fill="white"/>
<path d="M40.0237 36.7076C40.2529 36.4935 40.4525 36.2129 40.6151 35.8733C40.7851 35.541 40.9182 35.1571 41.0069 34.7288C41.103 34.3079 41.1548 33.8354 41.1548 33.3407C41.1622 32.846 41.1104 32.3587 41.0291 31.8935C40.9478 31.4283 40.8147 30.9779 40.6521 30.5718C40.4894 30.1657 40.2972 29.7891 40.0681 29.4643C39.8463 29.1394 39.5875 28.8736 39.314 28.6742L39.3214 26.5182C39.6023 26.5108 39.8537 26.4148 40.0902 26.245C40.3194 26.0752 40.519 25.8389 40.689 25.5362C40.8517 25.2408 40.9921 24.8864 41.0808 24.4803C41.1769 24.0742 41.2213 23.6164 41.2287 23.1217C41.2287 22.5458 41.1696 21.9699 41.0513 21.4087C40.933 20.8476 40.763 20.3085 40.556 19.8138C40.3416 19.3191 40.0828 18.8687 39.7871 18.4922C39.4914 18.1156 39.1662 17.8129 38.8113 17.6209C38.4491 17.4289 38.109 17.3625 37.7838 17.4142C37.4659 17.4732 37.1628 17.6431 36.9188 17.9236C36.6601 18.2116 36.4531 18.6029 36.3053 19.0829C36.1574 19.5702 36.0761 20.1387 36.0761 20.7811C36.0687 21.3349 36.1278 21.8886 36.2313 22.4203C36.3348 22.9593 36.4901 23.4687 36.6823 23.9413C36.8671 24.4139 37.0963 24.8347 37.355 25.2039C37.6064 25.5657 37.8873 25.8684 38.183 26.0826L38.1682 28.2903C37.8725 28.3124 37.5916 28.4232 37.3328 28.6078C37.0741 28.7997 36.8449 29.0655 36.6453 29.3978C36.4531 29.7375 36.2905 30.1509 36.1796 30.6087C36.0687 31.0739 36.0096 31.5908 36.0022 32.1371C36.0022 32.6909 36.0539 33.2299 36.1648 33.7468C36.2683 34.2562 36.4235 34.7362 36.6158 35.1644C36.808 35.5927 37.0297 35.9693 37.2885 36.272C37.5398 36.5747 37.8207 36.8184 38.1164 36.9734L38.1016 39.1885C37.8503 39.2624 37.6211 39.3879 37.3994 39.5725C37.1776 39.7571 36.9706 39.9933 36.7858 40.2813C36.601 40.5693 36.4383 40.8941 36.3127 41.2633C36.1796 41.6325 36.0835 42.0386 36.017 42.4669L34.7011 42.4299C34.6272 41.8983 34.5015 41.3962 34.3241 40.9384C34.1392 40.4807 33.9175 40.0598 33.6513 39.698C33.3852 39.3436 33.0747 39.0408 32.7347 38.8267C32.3872 38.6052 32.0102 38.4649 31.6184 38.4206C31.2118 38.3763 30.82 38.4502 30.4504 38.6052C30.0733 38.7677 29.7185 39.0261 29.4006 39.3583C29.0827 39.698 28.8018 40.1189 28.5874 40.5988C28.3583 41.0861 28.1882 41.6325 28.0921 42.2306L26.3253 42.1789C26.244 41.662 26.1035 41.1747 25.9261 40.7169C25.7413 40.2518 25.5121 39.8309 25.246 39.447C24.9725 39.0556 24.662 38.716 24.3146 38.428C23.9671 38.14 23.5827 37.9038 23.1761 37.7339L23.1909 34.8322C23.6862 34.751 24.1371 34.559 24.5437 34.2858C24.9429 34.0126 25.2904 33.6508 25.5861 33.2225C25.8744 32.7943 26.0962 32.2996 26.2588 31.7458C26.414 31.192 26.5027 30.5866 26.5027 29.9368C26.5101 29.2797 26.4288 28.6373 26.2736 28.0171C26.1257 27.3895 25.904 26.7914 25.623 26.2302C25.3421 25.6691 24.9947 25.1448 24.6029 24.687C24.2037 24.2293 23.7527 23.8305 23.2648 23.5278L23.287 20.6334C23.7823 20.663 24.2332 20.5744 24.6324 20.3898C25.0316 20.2052 25.3865 19.9246 25.6674 19.5554C25.9557 19.1936 26.1849 18.7432 26.3401 18.2264C26.4954 17.7095 26.5841 17.1188 26.5841 16.4691C26.5841 15.7085 26.4806 14.9333 26.281 14.1727C26.0814 13.4122 25.7783 12.6591 25.4086 11.9576C25.0316 11.2488 24.5733 10.5917 24.0632 10.0231C23.5309 9.44721 22.9395 8.96727 22.3112 8.62024C21.668 8.26583 21.0397 8.096 20.4556 8.08862C19.8642 8.08124 19.3172 8.24368 18.8515 8.56856C18.3783 8.88605 17.9939 9.37337 17.7204 9.9936C17.4469 10.6212 17.2916 11.3817 17.2842 12.253C17.2769 13.0135 17.3877 13.7888 17.5873 14.5419C17.7869 15.2951 18.0752 16.0334 18.4375 16.7127C18.7923 17.392 19.2137 18.0122 19.6868 18.5586C20.1526 19.0902 20.6626 19.548 21.2023 19.8951L21.1875 22.8485C20.6479 22.8264 20.1304 22.9297 19.6572 23.1439C19.1767 23.358 18.748 23.6903 18.3857 24.1185C18.0161 24.5541 17.7204 25.0931 17.5134 25.706C17.3064 26.3262 17.1881 27.0277 17.1807 27.7882C17.1807 28.5413 17.2842 29.2944 17.4838 30.0106C17.6834 30.7195 17.9717 31.3914 18.334 31.9895C18.6962 32.5875 19.1176 33.1192 19.5907 33.5548C20.0564 33.9831 20.5665 34.3301 21.1062 34.5516L21.084 37.5124C20.5444 37.6084 20.0269 37.8225 19.5611 38.14C19.0806 38.4649 18.6519 38.8932 18.2822 39.4026C17.9126 39.9195 17.6169 40.5176 17.4099 41.1821C17.1955 41.8466 17.0773 42.5702 17.0773 43.3307C17.0773 44.0913 17.1807 44.8149 17.3803 45.4868C17.5799 46.1513 17.8756 46.7568 18.2305 47.281C18.5853 47.7979 19.0141 48.2335 19.4872 48.5657C19.9529 48.8906 20.4704 49.1195 21.0101 49.2229L20.9953 52.1837C20.4556 52.4052 19.9382 52.7375 19.465 53.1584C18.9845 53.5866 18.5558 54.1109 18.1861 54.7016C17.8165 55.2996 17.5208 55.9642 17.3064 56.673C17.092 57.3892 16.9812 58.135 16.9738 58.8955C16.9738 59.656 17.0773 60.3574 17.2842 60.9776C17.4838 61.6053 17.7795 62.1443 18.1344 62.5799C18.4966 63.0229 18.9254 63.3552 19.3985 63.5841C19.8716 63.8056 20.3817 63.9163 20.9214 63.909L20.9066 66.8698C20.3595 67.2094 19.8421 67.6525 19.3689 68.1841C18.8884 68.7157 18.4597 69.3359 18.09 70.0078C17.7204 70.6945 17.4173 71.4255 17.2103 72.1786C17.0033 72.9391 16.885 73.7144 16.885 74.4749C16.8777 75.361 17.0255 76.1215 17.2916 76.7639C17.5504 77.3915 17.9422 77.8788 18.4005 78.2111C18.8589 78.5359 19.4059 78.7132 20.0047 78.7132C20.5813 78.7205 21.2171 78.5581 21.8676 78.2111C22.5034 77.8788 23.1022 77.3989 23.6344 76.8303C24.1667 76.2692 24.625 75.6194 25.0168 74.918C25.4013 74.2165 25.7117 73.4708 25.9261 72.7029C26.1331 71.9424 26.2514 71.1597 26.2588 70.3992C26.2662 69.742 26.1849 69.1513 26.0296 68.6345C25.8818 68.1102 25.66 67.6525 25.3791 67.2833C25.0908 66.9141 24.7433 66.6261 24.3515 66.4342C23.9523 66.2348 23.494 66.1388 23.0061 66.161L23.0209 63.2592C23.5162 62.9565 23.9745 62.5651 24.3811 62.1147C24.7803 61.6643 25.1351 61.1475 25.4234 60.5863C25.7117 60.0325 25.9409 59.4345 26.1035 58.8142C26.2588 58.194 26.3475 57.5443 26.3475 56.8945C26.3549 56.2447 26.2736 55.6319 26.1257 55.0781C25.9779 54.5243 25.7561 54.0149 25.4678 53.5866C25.1869 53.151 24.8394 52.7818 24.4476 52.5012C24.041 52.2207 23.5901 52.0213 23.0948 51.9327L23.117 49.0309C23.5309 48.8759 23.9154 48.647 24.2702 48.359C24.6176 48.0784 24.9355 47.7388 25.2091 47.3548C25.4826 46.9709 25.7191 46.55 25.9039 46.0922C26.0888 45.6344 26.2292 45.1471 26.3179 44.6303L28.0848 44.6081C28.1809 45.2062 28.3435 45.7526 28.5579 46.2399C28.7797 46.7272 29.0532 47.1555 29.3637 47.5025C29.6741 47.8421 30.0216 48.108 30.3986 48.2704C30.7682 48.4402 31.1674 48.5141 31.5666 48.4771C31.9658 48.4476 32.3429 48.3073 32.6977 48.0932C33.0378 47.8791 33.3482 47.5837 33.6218 47.2293C33.8953 46.8749 34.1245 46.4614 34.3093 46.0036C34.4941 45.5458 34.6272 45.0438 34.7085 44.5121L36.0243 44.4974C36.0835 44.9256 36.1796 45.3317 36.3053 45.7009C36.4309 46.0701 36.5862 46.4097 36.771 46.6977C36.9484 46.9856 37.148 47.2293 37.3698 47.4139C37.5842 47.6059 37.8281 47.7388 38.0721 47.8126L38.0647 50.0203C37.769 50.168 37.4881 50.4043 37.2293 50.6996C36.9706 51.0097 36.7414 51.3789 36.5418 51.7998C36.3422 52.228 36.187 52.7006 36.0761 53.2101C35.9652 53.7195 35.8987 54.2659 35.8987 54.8197C35.8913 55.3735 35.9504 55.8903 36.0539 56.3555C36.1648 56.8207 36.3127 57.2268 36.5049 57.5738C36.6971 57.9134 36.9262 58.1866 37.185 58.3786C37.4363 58.5706 37.7172 58.6887 38.0203 58.7109L38.0055 60.9186C37.7098 61.1327 37.4289 61.4281 37.1702 61.7899C36.9115 62.1517 36.6749 62.5725 36.4827 63.0451C36.2831 63.5176 36.1278 64.0271 36.0096 64.5587C35.8987 65.0903 35.8321 65.6515 35.8321 66.2053C35.8247 66.8476 35.9061 67.4236 36.0465 67.9109C36.187 68.3982 36.394 68.7895 36.6453 69.0849C36.8967 69.3655 37.185 69.5574 37.5102 69.6165C37.8281 69.683 38.183 69.6165 38.5378 69.4319C38.8927 69.2473 39.2327 68.952 39.5284 68.5754C39.8241 68.1989 40.0902 67.7558 40.3046 67.2611C40.5264 66.7664 40.7038 66.2274 40.8221 65.6736C40.9478 65.1199 41.0143 64.5366 41.0217 63.9533C41.0217 63.4585 40.9774 63.0008 40.8886 62.5947C40.8073 62.1886 40.6743 61.8268 40.5116 61.524C40.349 61.2213 40.1494 60.985 39.9202 60.8152C39.691 60.6454 39.4323 60.542 39.1514 60.5346L39.1662 58.3712C39.4397 58.1792 39.6984 57.9061 39.935 57.5886C40.1642 57.2711 40.3638 56.9019 40.5338 56.4884C40.7038 56.0823 40.8369 55.6393 40.9256 55.1741C41.0217 54.7089 41.0735 54.2216 41.0735 53.7195C41.0808 53.2248 41.0291 52.7523 40.9404 52.3314C40.8517 51.9032 40.726 51.5192 40.5634 51.1796C40.4007 50.8399 40.2011 50.5519 39.972 50.3304C39.7502 50.1089 39.4914 49.9539 39.2179 49.8727L39.2327 47.7166C39.5136 47.5837 39.7724 47.377 40.0015 47.1038C40.2307 46.838 40.4303 46.5057 40.5929 46.1439C40.763 45.7747 40.896 45.3612 40.9847 44.9108C41.0735 44.4678 41.1252 43.9879 41.1252 43.4932C41.1326 42.9985 41.0808 42.5185 40.9995 42.0681C40.9108 41.6177 40.7778 41.2043 40.6225 40.8277C40.4673 40.4511 40.2603 40.1262 40.0385 39.853C39.8093 39.5799 39.558 39.3657 39.2771 39.2328L39.2918 37.0768C39.5358 37.0768 39.7872 36.9217 40.0237 36.7076Z" fill="white"/>
<path d="M8.91589 1.3619C9.83257 1.86399 10.6827 2.52113 11.4441 3.28165C12.1834 4.02739 12.8413 4.86913 13.381 5.76255C13.9133 6.6412 14.3346 7.57154 14.6229 8.50926C14.9113 9.43222 15.0665 10.3699 15.0591 11.2781C15.0517 12.1863 14.8891 12.9764 14.586 13.6335C14.2903 14.3054 13.8541 14.8444 13.3145 15.2358C12.76 15.6345 12.1021 15.8855 11.348 15.952C10.5866 16.0184 9.72168 15.9003 8.805 15.568C7.86615 15.2284 6.94947 14.6894 6.09933 14.0101C5.227 13.3086 4.42861 12.4595 3.74849 11.5144C3.06099 10.5545 2.49176 9.49867 2.09996 8.41327C1.70076 7.32049 1.48637 6.19818 1.48637 5.12756C1.50116 4.05693 1.73033 3.13397 2.13692 2.41038C2.54351 1.68678 3.12013 1.14777 3.82242 0.815511C4.51732 0.490631 5.30832 0.372493 6.18804 0.461097C7.06036 0.557084 7.97704 0.852431 8.91589 1.3619Z" fill="#008BBF"/>
</svg>
